<svg width="1024" height="95" viewBox="0 0 1024 95" fill="none" xmlns="http://www.w3.org/2000/svg">
<path fill-rule="evenodd" clip-rule="evenodd" d="M0 10C0 4.47715 4.47715 0 10 0H1014C1019.52 0 1024 4.47715 1024 10V94.99C1024 94.9955 1024 95 1023.99 95C1023.98 95 1023.98 94.9957 1023.98 94.9903C1023.45 81.6513 1012.47 71 999 71H757.519C752.455 71 748.296 67.1673 746.812 62.3261C740.542 41.8723 721.508 27 699 27H524C501.492 27 482.458 41.8723 476.188 62.3261C474.704 67.1673 470.545 71 465.481 71H25C11.531 71 0.549843 81.6513 0.0200166 94.9903C0.0198033 94.9957 0.0153857 95 0.0100103 95C0.00448175 95 0 94.9955 0 94.99V10Z" fill="#7027E2"/>
</svg>
