<svg width="442" height="151" viewBox="0 0 442 151" fill="none" xmlns="http://www.w3.org/2000/svg">
<mask id="path-1-inside-1_4001_753" fill="white">
<path fill-rule="evenodd" clip-rule="evenodd" d="M368.204 0C372.856 0 376 5.34811 376 10V45C376 56.0457 384.954 65 396 65H432C437.523 65 442 69.4771 442 75V131C442 142.046 433.046 151 422 151H20C8.9543 151 0 142.046 0 131V20C0 8.95431 8.95431 0 20 0H368.204Z"/>
</mask>
<path d="M377 45V10H375V45H377ZM396 64C385.507 64 377 55.4934 377 45H375C375 56.598 384.402 66 396 66V64ZM432 64H396V66H432V64ZM441 75V131H443V75H441ZM441 131C441 141.493 432.493 150 422 150V152C433.598 152 443 142.598 443 131H441ZM422 150H20V152H422V150ZM20 150C9.50659 150 1 141.493 1 131H-1C-1 142.598 8.40202 152 20 152V150ZM1 131V20H-1V131H1ZM1 20C1 9.50659 9.50659 1 20 1V-1C8.40202 -1 -1 8.40202 -1 20H1ZM20 1H368.204V-1H20V1ZM432 66C436.971 66 441 70.0294 441 75H443C443 68.9249 438.075 64 432 64V66ZM377 10C377 7.46843 376.15 4.76505 374.661 2.67509C373.169 0.582198 370.949 -1 368.204 -1V1C370.111 1 371.789 2.09185 373.032 3.83599C374.277 5.58305 375 7.87968 375 10H377Z" fill="white" mask="url(#path-1-inside-1_4001_753)"/>
</svg>
