<svg width="360" height="61" viewBox="0 0 360 61" fill="none" xmlns="http://www.w3.org/2000/svg">
<path fill-rule="evenodd" clip-rule="evenodd" d="M360 10C360 4.47715 355.523 0 350 0H10C4.47715 0 0 4.47716 0 10V57.1474V60.7956C0 60.9085 0.0915204 61 0.204417 61C0.337113 61 0.434604 60.8755 0.404977 60.7462C0.139984 59.5893 0 58.3847 0 57.1474C0 48.2817 7.18701 41.0947 16.0526 41.0947H343.947C352.813 41.0947 360 48.2817 360 57.1474C360 58.3847 359.86 59.5893 359.595 60.7462C359.565 60.8755 359.663 61 359.796 61C359.908 61 360 60.9085 360 60.7956V57.1474V10Z" fill="#7027E2"/>
</svg>
