<svg width="768" height="95" viewBox="0 0 768 95" fill="none" xmlns="http://www.w3.org/2000/svg">
<path fill-rule="evenodd" clip-rule="evenodd" d="M0 10C0 4.47715 4.47714 0 9.99998 0H758C763.523 0 768 4.47715 768 10V89C768 75.1929 756.807 64 743 64H560.127C555.603 64 551.737 60.9117 549.905 56.7751C542.139 39.2363 524.581 27 504.165 27H400.369C379.953 27 362.395 39.2363 354.628 56.7751C352.796 60.9117 348.93 64 344.406 64H25C11.1929 64 0 75.1929 0 89V10ZM0.630701 94.6047C0.676841 94.8062 0.525012 95 0.318353 95C0.142532 95 0 94.8575 0 94.6816V89C0 90.9269 0.218007 92.803 0.630701 94.6047ZM767.682 95C767.475 95 767.323 94.8062 767.369 94.6047C767.782 92.8029 768 90.9269 768 89V94.6816C768 94.8575 767.857 95 767.682 95Z" fill="#7027E2"/>
</svg>
