<svg width="649" height="151" viewBox="0 0 649 151" fill="none" xmlns="http://www.w3.org/2000/svg">
<mask id="path-1-inside-1_4_72" fill="white">
<path fill-rule="evenodd" clip-rule="evenodd" d="M574.204 0C578.856 0 582 5.34812 582 10V45C582 56.0457 590.954 65 602 65H639C644.523 65 649 69.4771 649 75V131C649 142.046 640.046 151 629 151H20C8.95429 151 0 142.046 0 131V20C0 8.95431 8.9543 0 20 0H574.204Z" />
</mask>
<path d="M583 45V10H581V45H583ZM602 64C591.507 64 583 55.4934 583 45H581C581 56.598 590.402 66 602 66V64ZM639 64H602V66H639V64ZM648 75V131H650V75H648ZM648 131C648 141.493 639.493 150 629 150V152C640.598 152 650 142.598 650 131H648ZM629 150H20V152H629V150ZM20 150C9.50657 150 1 141.493 1 131H-1C-1 142.598 8.402 152 20 152V150ZM1 131V20H-1V131H1ZM1 20C1 9.50659 9.50659 1 20 1V-1C8.40202 -1 -1 8.40202 -1 20H1ZM20 1H574.204V-1H20V1ZM639 66C643.971 66 648 70.0294 648 75H650C650 68.9249 645.075 64 639 64V66ZM583 10C583 7.46844 582.15 4.76506 580.661 2.6751C579.169 0.582205 576.949 -1 574.204 -1V1C576.111 1 577.789 2.09186 579.032 3.83599C580.277 5.58306 581 7.87969 581 10H583Z" fill="white" mask="url(#path-1-inside-1_4_72)" />
</svg>