<svg width="51" height="50" viewBox="0 0 51 50" fill="none" xmlns="http://www.w3.org/2000/svg">
<path d="M3.625 19.125C3.625 13.5245 3.625 10.7242 4.71493 8.58509C5.67367 6.70347 7.20347 5.17367 9.08509 4.21493C11.2242 3.125 14.0245 3.125 19.625 3.125H31.375C36.9755 3.125 39.7758 3.125 41.9149 4.21493C43.7965 5.17367 45.3263 6.70347 46.2851 8.58509C47.375 10.7242 47.375 13.5245 47.375 19.125V30.875C47.375 36.4755 47.375 39.2758 46.2851 41.4149C45.3263 43.2965 43.7965 44.8263 41.9149 45.7851C39.7758 46.875 36.9755 46.875 31.375 46.875H19.625C14.0245 46.875 11.2242 46.875 9.08509 45.7851C7.20347 44.8263 5.67367 43.2965 4.71493 41.4149C3.625 39.2758 3.625 36.4755 3.625 30.875V19.125Z" fill="white"/>
<path d="M36.4165 15.9512C36.6113 14.6927 35.4147 13.6993 34.2957 14.1906L12.0075 23.9763C11.205 24.3286 11.2637 25.5442 12.096 25.8092L16.6924 27.2729C17.5697 27.5523 18.5196 27.4078 19.2856 26.8786L29.6484 19.7192C29.9609 19.5033 30.3015 19.9476 30.0345 20.2229L22.5752 27.9135C21.8516 28.6595 21.9952 29.9237 22.8656 30.4695L31.2171 35.7067C32.1538 36.2941 33.3589 35.704 33.5341 34.5721L36.4165 15.9512Z" fill="#7027E2"/>
</svg>
