<svg width="51" height="50" viewBox="0 0 51 50" fill="none" xmlns="http://www.w3.org/2000/svg">
<path d="M3.625 19.125C3.625 13.5245 3.625 10.7242 4.71493 8.58509C5.67367 6.70347 7.20347 5.17367 9.08509 4.21493C11.2242 3.125 14.0245 3.125 19.625 3.125H31.375C36.9755 3.125 39.7758 3.125 41.9149 4.21493C43.7965 5.17367 45.3263 6.70347 46.2851 8.58509C47.375 10.7242 47.375 13.5245 47.375 19.125V30.875C47.375 36.4755 47.375 39.2758 46.2851 41.4149C45.3263 43.2965 43.7965 44.8263 41.9149 45.7851C39.7758 46.875 36.9755 46.875 31.375 46.875H19.625C14.0245 46.875 11.2242 46.875 9.08509 45.7851C7.20347 44.8263 5.67367 43.2965 4.71493 41.4149C3.625 39.2758 3.625 36.4755 3.625 30.875V19.125Z" fill="white"/>
<path d="M36.3177 28.647C35.9811 28.1903 35.9057 27.728 36.0896 27.2596C36.5486 26.0098 43.2334 18.0721 40.4486 18.0721C38.535 18.0975 36.2337 18.0721 34.3991 18.0721C34.0585 18.155 33.8382 18.3337 33.7003 18.6974C32.6275 21.171 31.3147 24.1898 29.3907 26.1299C29.1376 26.334 28.9798 26.3253 28.6914 26.2498C27.3418 24.829 28.7809 19.9611 27.9602 18.0376C27.7984 17.6611 27.4444 17.491 27.0821 17.3953C25.2498 16.9586 21.0651 17.2185 20.3823 18.0975C20.1872 18.3488 20.1599 18.4859 20.3008 18.5085C20.9514 18.6111 21.4119 18.8566 21.683 19.2448C22.1943 20.3709 22.5712 26.3694 21.0651 26.3694C19.5591 26.3694 17.1305 20.4825 16.4633 18.8506C16.2858 18.3592 15.8338 18.0775 15.3576 17.9943L10.902 18.0284C10.1188 18.0284 9.68113 18.4147 9.95872 19.1931C12.2794 24.9536 17.3578 36.1194 25.1467 35.8398C25.927 35.8398 27.2693 36.1394 27.8787 35.4629C28.7162 34.3519 27.6948 32.3732 29.1309 31.6186C29.493 31.4259 29.8684 31.5874 30.1795 31.8243C31.7768 33.0406 32.6249 35.1753 34.5947 35.8234C34.941 35.9375 35.2445 35.966 35.505 35.909L39.6678 35.8406C40.4406 35.8406 41.2019 35.4967 41.042 34.5728C40.4351 32.5914 38.0168 30.5547 36.3177 28.647Z" fill="#7027E2"/>
</svg>
