<svg width="51" height="50" viewBox="0 0 51 50" fill="none" xmlns="http://www.w3.org/2000/svg">
<path d="M3.625 19.125C3.625 13.5245 3.625 10.7242 4.71493 8.58509C5.67367 6.70347 7.20347 5.17367 9.08509 4.21493C11.2242 3.125 14.0245 3.125 19.625 3.125H31.375C36.9755 3.125 39.7758 3.125 41.9149 4.21493C43.7965 5.17367 45.3263 6.70347 46.2851 8.58509C47.375 10.7242 47.375 13.5245 47.375 19.125V30.875C47.375 36.4755 47.375 39.2758 46.2851 41.4149C45.3263 43.2965 43.7965 44.8263 41.9149 45.7851C39.7758 46.875 36.9755 46.875 31.375 46.875H19.625C14.0245 46.875 11.2242 46.875 9.08509 45.7851C7.20347 44.8263 5.67367 43.2965 4.71493 41.4149C3.625 39.2758 3.625 36.4755 3.625 30.875V19.125Z" fill="white"/>
<path fill-rule="evenodd" clip-rule="evenodd" d="M24.2985 11.0502C19.9159 11.7396 16.5889 13.8102 14.2356 17.313C13.2559 18.7714 12.6248 20.2673 12.2062 22.1236C12.034 22.8872 12.0028 23.319 12.0002 24.9752C11.9974 26.6862 12.0239 27.0458 12.2144 27.8917C12.5851 29.5361 13.2057 31.0647 14.0741 32.4718L14.399 32.998L13.7346 35.4182C13.3692 36.7493 13.0453 37.903 13.0147 37.9822C12.9816 38.0681 13.0103 38.1263 13.0862 38.1272C13.156 38.128 14.3659 37.829 15.7749 37.4626C18.2688 36.8145 18.3432 36.8011 18.5814 36.9562C19.0723 37.2758 20.9032 38.1156 21.6227 38.351C23.1507 38.8508 24.1152 38.9958 25.9356 38.9999C27.7982 39.0042 28.6146 38.8863 30.1886 38.3868C32.3997 37.6852 34.1428 36.6196 35.8568 34.9215C37.8899 32.9071 39.1282 30.6618 39.7436 27.8743C40.0188 26.6273 40.0839 24.3558 39.8829 23.0028C39.2096 18.465 36.2931 14.466 32.1735 12.4314C30.1922 11.4531 28.1001 10.9792 25.8562 11.0007C25.1281 11.0077 24.4272 11.0299 24.2985 11.0502ZM21.2355 17.3144C21.3565 17.3692 21.5117 17.5035 21.5805 17.6129C21.7937 17.9522 23.176 21.3296 23.176 21.5114C23.176 21.803 22.8448 22.348 22.2969 22.958C21.9343 23.3618 21.7727 23.6194 21.7724 23.7937C21.7713 24.4176 23.7058 26.7189 25.0924 27.7431C25.8855 28.329 27.7787 29.2968 28.1318 29.2968C28.3716 29.2968 28.7102 28.959 29.6085 27.8232C30.2014 27.0741 30.234 27.0487 30.5426 27.0984C30.7184 27.1268 31.6901 27.5599 32.702 28.0606L34.5421 28.9714L34.5733 29.4361C34.6439 30.4903 34.2472 31.4457 33.498 32.0259C32.3925 32.8814 31.0769 33.2339 29.7523 33.0293C28.1393 32.7802 25.48 31.6435 23.9711 30.5583C21.1065 28.4979 18.2423 24.8616 17.597 22.4659C17.4291 21.8424 17.4367 20.6318 17.613 19.9598C17.8929 18.892 18.7428 17.7209 19.4789 17.3888C19.9026 17.1975 20.8853 17.156 21.2355 17.3144Z" fill="#7027E2"/>
</svg>
